<svg fill="#FFFFFF" xmlns="http://www.w3.org/2000/svg"  viewBox="0 0 50 50" width="50px" height="50px"><path d="M 1 14 A 1.0001 1.0001 0 0 0 0 15 L 0 36 A 1.0001 1.0001 0 0 0 1 37 L 49 37 A 1.0001 1.0001 0 0 0 50 36 L 50 15 A 1.0001 1.0001 0 0 0 49 14 L 1 14 z M 2 16 L 48 16 L 48 35 L 2 35 L 2 16 z M 15.675781 18 L 13.609375 31.785156 L 13.609375 18.001953 L 10.173828 18.001953 L 8.9335938 25.746094 L 7.7265625 18.003906 L 4.2890625 18.003906 L 4.2890625 32.990234 L 6.9960938 32.990234 L 6.9960938 25.765625 L 8.2265625 32.990234 L 9.6660156 32.990234 L 10.880859 25.765625 L 10.880859 32.990234 L 16.099609 32.990234 L 16.417969 30.683594 L 18.517578 30.683594 L 18.833984 32.990234 L 23.957031 32.992188 L 23.962891 32.992188 L 23.962891 32.990234 L 23.964844 32.990234 L 23.96875 32.990234 L 23.96875 28.125 L 24.595703 28.033203 L 25.896484 32.992188 L 25.900391 32.992188 L 28.544922 32.992188 L 28.546875 32.992188 L 28.546875 32.990234 L 28.550781 32.990234 L 28.554688 32.990234 L 26.847656 27.177734 C 27.712656 26.537734 28.687734 24.913375 28.427734 23.359375 C 28.431366 23.384153 30.039062 33 30.039062 33 L 33.191406 32.990234 L 35.345703 19.404297 L 35.345703 32.990234 L 40.455078 32.990234 L 40.455078 30.294922 L 38.029297 30.294922 L 38.029297 26.857422 L 40.455078 26.857422 L 40.455078 24.119141 L 38.029297 24.119141 L 38.029297 20.734375 L 40.455078 20.734375 L 40.455078 18.001953 L 32.853516 18.001953 L 31.603516 27.130859 L 30.365234 18.001953 L 27.623047 18.001953 L 27.931641 20.4375 C 27.614641 19.8135 26.492484 18.001953 24.021484 18.001953 C 24.005484 18.000953 21.275391 18.001953 21.275391 18.001953 L 21.263672 31.306641 L 19.265625 18.001953 L 15.675781 18 z M 40.925781 18 L 40.925781 32.986328 L 45.910156 32.986328 L 45.910156 30.292969 L 43.609375 30.292969 L 43.609375 18 L 40.925781 18 z M 23.980469 20.677734 C 24.192469 20.676734 25.773438 20.7415 25.773438 23.0625 C 25.773438 24.2765 25.236469 25.041656 24.605469 25.347656 C 24.397469 25.448656 24.17975 25.5 23.96875 25.5 L 23.96875 20.679688 C 23.97275 20.679688 23.975469 20.677734 23.980469 20.677734 z M 17.478516 21.900391 L 18.251953 28.306641 L 16.736328 28.306641 L 17.478516 21.900391 z"/></svg>